<svg width="2833" height="420" viewBox="0 0 2833 420" fill="none" xmlns="http://www.w3.org/2000/svg">
<path d="M2774.7 142.79V103.479H2794.62C2796.22 103.479 2797.96 103.94 2799.84 104.864C2801.72 105.751 2803.32 107.136 2804.64 109.018C2805.98 110.865 2806.66 113.209 2806.66 116.05C2806.66 118.926 2805.97 121.376 2804.58 123.401C2803.2 125.389 2801.51 126.898 2799.52 127.928C2797.57 128.958 2795.72 129.473 2793.98 129.473H2779.6V123.081H2791.32C2792.49 123.081 2793.75 122.495 2795.1 121.323C2796.49 120.151 2797.18 118.393 2797.18 116.05C2797.18 113.635 2796.49 112.001 2795.1 111.149C2793.75 110.297 2792.56 109.871 2791.53 109.871H2783.33V142.79H2774.7ZM2798.46 124.253L2808.26 142.79H2798.78L2789.19 124.253H2798.46ZM2789.61 166.227C2783.72 166.227 2778.2 165.126 2773.05 162.925C2767.9 160.723 2763.37 157.669 2759.46 153.763C2755.56 149.857 2752.5 145.329 2750.3 140.18C2748.1 135.031 2747 129.509 2747 123.614C2747 117.719 2748.1 112.197 2750.3 107.048C2752.5 101.898 2755.56 97.3707 2759.46 93.4645C2763.37 89.5582 2767.9 86.5043 2773.05 84.3026C2778.2 82.1009 2783.72 81 2789.61 81C2795.51 81 2801.03 82.1009 2806.18 84.3026C2811.33 86.5043 2815.86 89.5582 2819.76 93.4645C2823.67 97.3707 2826.72 101.898 2828.92 107.048C2831.13 112.197 2832.23 117.719 2832.23 123.614C2832.23 129.509 2831.13 135.031 2828.92 140.18C2826.72 145.329 2823.67 149.857 2819.76 153.763C2815.86 157.669 2811.33 160.723 2806.18 162.925C2801.03 165.126 2795.51 166.227 2789.61 166.227ZM2789.61 156C2795.58 156 2801.01 154.544 2805.91 151.632C2810.81 148.72 2814.72 144.814 2817.63 139.913C2820.54 135.013 2822 129.58 2822 123.614C2822 117.648 2820.54 112.214 2817.63 107.314C2814.72 102.413 2810.81 98.5071 2805.91 95.5952C2801.01 92.6832 2795.58 91.2273 2789.61 91.2273C2783.65 91.2273 2778.21 92.6832 2773.31 95.5952C2768.41 98.5071 2764.51 102.413 2761.6 107.314C2758.68 112.214 2757.23 117.648 2757.23 123.614C2757.23 129.58 2758.68 135.013 2761.6 139.913C2764.51 144.814 2768.41 148.72 2773.31 151.632C2778.21 154.544 2783.65 156 2789.61 156Z" fill="white"/>
<path d="M95.5325 0C93.6639 0 91.9756 1.1144 91.241 2.83267L0.750617 214.581C-0.288183 217.012 -0.247115 219.77 0.863552 222.17L91.199 417.294C91.9625 418.943 93.6154 420 95.4336 420H150.709C152.061 420 152.964 418.609 152.414 417.375L80.8988 256.658L163.904 256.653L234.728 417.217C235.475 418.908 237.149 420 238.998 420H322.803C324.621 420 326.274 418.943 327.037 417.294L417.354 222.21C418.476 219.787 418.507 216.999 417.438 214.553L340.084 37.4519C339.436 35.9679 337.334 35.9567 336.67 37.4341L259.221 214.723C258.142 217.127 258.129 219.877 259.187 222.29L278.825 267.125C279.468 268.592 281.538 268.622 282.222 267.174L332.651 159.702L356.067 210.518L279.662 379.784L207.966 221.095L301.34 2.60026C301.866 1.36826 300.963 0 299.624 0H242.846C241.002 0 239.33 1.08639 238.582 2.77106L156.847 186.675L73.5021 186.763L155.341 2.62453C155.889 1.39066 154.986 0 153.635 0H95.5325Z" fill="white"/>
<path d="M2499.69 360V80H2616.09C2632.09 80 2646.49 83.8667 2659.29 91.6C2672.35 99.3334 2682.75 109.867 2690.49 123.2C2698.22 136.533 2702.09 151.467 2702.09 168C2702.09 184.8 2698.22 200 2690.49 213.6C2682.75 226.933 2672.35 237.6 2659.29 245.6C2646.49 253.6 2632.09 257.6 2616.09 257.6H2551.69V360H2499.69ZM2551.69 209.6H2612.49C2619.15 209.6 2625.15 207.733 2630.49 204C2636.09 200.267 2640.49 195.333 2643.69 189.2C2647.15 183.067 2648.89 176.133 2648.89 168.4C2648.89 160.667 2647.15 153.867 2643.69 148C2640.49 141.867 2636.09 137.067 2630.49 133.6C2625.15 129.867 2619.15 128 2612.49 128H2551.69V209.6Z" fill="white"/>
<path d="M2245.69 360V80H2428.89V127.2H2296.89V312.8H2430.49V360H2245.69ZM2269.69 240V193.6H2408.49V240H2269.69Z" fill="white"/>
<path d="M1962.78 360V80H2084.38C2101.18 80 2116.51 84 2130.38 92C2144.25 99.7333 2155.18 110.4 2163.18 124C2171.45 137.333 2175.58 152.4 2175.58 169.2C2175.58 185.2 2171.45 200 2163.18 213.6C2155.18 226.933 2144.25 237.6 2130.38 245.6C2116.78 253.333 2101.45 257.2 2084.38 257.2H2013.58V360H1962.78ZM2125.18 360L2053.98 233.6L2107.58 223.6L2186.78 360.4L2125.18 360ZM2013.58 212H2084.78C2092.51 212 2099.18 210.267 2104.78 206.8C2110.65 203.067 2115.18 198 2118.38 191.6C2121.58 185.2 2123.18 178.133 2123.18 170.4C2123.18 161.6 2121.18 154 2117.18 147.6C2113.18 141.2 2107.58 136.133 2100.38 132.4C2093.18 128.667 2084.91 126.8 2075.58 126.8H2013.58V212Z" fill="white"/>
<path d="M1777.39 364C1756.32 364 1736.85 360.4 1718.99 353.2C1701.12 345.733 1685.52 335.467 1672.19 322.4C1659.12 309.333 1648.99 294.133 1641.79 276.8C1634.59 259.2 1630.99 240.133 1630.99 219.6C1630.99 199.333 1634.59 180.533 1641.79 163.2C1649.25 145.6 1659.65 130.4 1672.99 117.6C1686.32 104.533 1701.92 94.4 1719.79 87.2C1737.92 80 1757.39 76.4 1778.19 76.4C1792.85 76.4 1806.99 78.4 1820.59 82.4C1834.19 86.4 1846.45 92 1857.39 99.2C1868.32 106.4 1877.39 114.533 1884.59 123.6L1851.79 158C1844.32 150.8 1836.59 144.8 1828.59 140C1820.85 135.2 1812.72 131.467 1804.19 128.8C1795.65 126.133 1786.85 124.8 1777.79 124.8C1764.45 124.8 1752.05 127.2 1740.59 132C1729.39 136.8 1719.52 143.467 1710.99 152C1702.72 160.533 1696.19 170.533 1691.39 182C1686.59 193.467 1684.19 206 1684.19 219.6C1684.19 232.667 1686.59 245.067 1691.39 256.8C1696.45 268.533 1703.39 278.8 1712.19 287.6C1720.99 296.4 1731.12 303.333 1742.59 308.4C1754.32 313.2 1766.72 315.6 1779.79 315.6C1789.65 315.6 1798.85 314.133 1807.39 311.2C1815.92 308.267 1823.52 304.267 1830.19 299.2C1836.85 293.867 1841.92 287.733 1845.39 280.8C1849.12 273.867 1850.99 266.4 1850.99 258.4V249.6L1858.19 258H1775.39V211.6H1902.19C1902.72 214.533 1903.12 217.867 1903.39 221.6C1903.65 225.067 1903.79 228.533 1903.79 232C1904.05 235.2 1904.19 238 1904.19 240.4C1904.19 258.8 1900.99 275.6 1894.59 290.8C1888.19 305.733 1879.12 318.667 1867.39 329.6C1855.92 340.533 1842.45 349.067 1826.99 355.2C1811.79 361.067 1795.25 364 1777.39 364Z" fill="white"/>
<path d="M1343.5 360L1452.7 80H1501.5L1609.9 360H1555.9L1495.9 200.8C1494.57 197.6 1492.7 192.533 1490.3 185.6C1488.17 178.667 1485.77 171.2 1483.1 163.2C1480.44 154.933 1478.04 147.333 1475.9 140.4C1473.77 133.2 1472.17 128 1471.1 124.8L1481.1 124.4C1479.5 129.733 1477.64 135.733 1475.5 142.4C1473.37 149.067 1471.1 156 1468.7 163.2C1466.3 170.4 1463.9 177.333 1461.5 184C1459.37 190.667 1457.37 196.667 1455.5 202L1395.5 360H1343.5ZM1393.1 296L1411.1 250.8H1538.7L1557.9 296H1393.1Z" fill="white"/>
<path d="M1091.8 360V80H1213.4C1230.2 80 1245.53 84 1259.4 92C1273.26 99.7333 1284.2 110.4 1292.2 124C1300.46 137.333 1304.6 152.4 1304.6 169.2C1304.6 185.2 1300.46 200 1292.2 213.6C1284.2 226.933 1273.26 237.6 1259.4 245.6C1245.8 253.333 1230.46 257.2 1213.4 257.2H1142.6V360H1091.8ZM1254.2 360L1183 233.6L1236.6 223.6L1315.8 360.4L1254.2 360ZM1142.6 212H1213.8C1221.53 212 1228.2 210.267 1233.8 206.8C1239.66 203.067 1244.2 198 1247.4 191.6C1250.6 185.2 1252.2 178.133 1252.2 170.4C1252.2 161.6 1250.2 154 1246.2 147.6C1242.2 141.2 1236.6 136.133 1229.4 132.4C1222.2 128.667 1213.93 126.8 1204.6 126.8H1142.6V212Z" fill="white"/>
<path d="M837.797 360V80H1021V127.2H888.997V312.8H1022.6V360H837.797ZM861.797 240V193.6H1000.6V240H861.797Z" fill="white"/>
<path d="M648 360V128H568V80H782.4V128H700V360H648Z" fill="white"/>
</svg>
